<svg width="33" height="32" viewBox="0 0 33 32" fill="black" xmlns="http://www.w3.org/2000/svg">
<g clip-path="url(#clip0_1128_11083)">
<path d="M23.7051 9.58301V11.103H22.1751V12.633H20.6551V14.153H19.1351V17.203H20.6551V18.723H22.1751V20.253H23.7051V21.773H25.2251V17.203H31.3251V14.153H25.2251V9.58301H23.7051Z"/>
<path d="M23.7052 24.823H22.1752V27.873H23.7052V24.823Z"/>
<path d="M23.7052 1.96298H22.1752V6.53298H23.7052V1.96298Z"/>
<path d="M16.0851 30.913V29.393H22.1751V27.873H16.0851V8.06299H14.5651V30.913H16.0851Z"/>
<path d="M14.5651 30.913H9.98511V32.443H14.5651V30.913Z"/>
<path d="M13.0351 17.203H11.5151V20.253H13.0351V17.203Z"/>
<path d="M14.5651 6.53299H11.5151V8.06299H14.5651V6.53299Z"/>
<path d="M9.98507 29.393H6.94507V30.913H9.98507V29.393Z"/>
<path d="M11.5151 5.013H8.46509V6.533H11.5151V5.013Z"/>
<path d="M6.94514 27.873H3.89514V29.393H6.94514V27.873Z"/>
<path d="M8.46516 3.49298H5.41516V5.01298H8.46516V3.49298Z"/>
<path d="M3.89512 0.442993V1.96299H2.37512V27.873H3.89512V3.49299H5.41512V1.96299H22.1751V0.442993H3.89512Z"/>
</g>
<defs>
<clipPath id="clip0_1128_11083">
<rect width="32" height="32" fill="white" transform="translate(0.850098)"/>
</clipPath>
</defs>
</svg>
