<svg width="33" height="32" viewBox="0 0 33 32" fill="black" xmlns="http://www.w3.org/2000/svg">
<g clip-path="url(#clip0_1128_11575)">
<path d="M30.5652 14.48V17.53H29.0452V19.05H32.0852V12.95H29.0452V14.48H30.5652Z"/>
<path d="M29.0451 23.62H27.5151V25.14H29.0451V23.62Z"/>
<path d="M29.0451 19.05H27.5151V22.1H29.0451V19.05Z"/>
<path d="M29.0451 9.90999H27.5151V12.95H29.0451V9.90999Z"/>
<path d="M29.0451 6.86H27.5151V8.38H29.0451V6.86Z"/>
<path d="M27.5151 25.14H25.9951V26.67H27.5151V25.14Z"/>
<path d="M27.5151 22.1H25.9951V23.62H27.5151V22.1Z"/>
<path d="M27.5151 8.37999H25.9951V9.90999H27.5151V8.37999Z"/>
<path d="M27.5151 5.34H25.9951V6.86H27.5151V5.34Z"/>
<path d="M25.9951 26.67H24.4651V28.19H25.9951V26.67Z"/>
<path d="M25.9951 12.95H24.4651V19.05H25.9951V12.95Z"/>
<path d="M25.9951 3.81H24.4651V5.34H25.9951V3.81Z"/>
<path d="M24.4651 25.14H22.9451V26.67H24.4651V25.14Z"/>
<path d="M24.4651 19.05H22.9451V22.1H24.4651V19.05Z"/>
<path d="M24.4651 9.90999H22.9451V12.95H24.4651V9.90999Z"/>
<path d="M24.4651 5.34H22.9451V6.86H24.4651V5.34Z"/>
<path d="M22.9451 26.67H19.8951V28.19H22.9451V26.67Z"/>
<path d="M22.9451 22.1H19.8951V23.62H22.9451V22.1Z"/>
<path d="M22.9451 8.37999H19.8951V9.90999H22.9451V8.37999Z"/>
<path d="M22.9451 3.81H19.8951V5.34H22.9451V3.81Z"/>
<path d="M18.3751 29.72H15.3251V28.19H13.8051V31.24H19.8951V28.19H18.3751V29.72Z"/>
<path d="M19.8951 23.62H13.8051V25.14H19.8951V23.62Z"/>
<path d="M15.3251 19.05H18.3751V17.53H19.8951V14.48H18.3751V12.95H15.3251V14.48H13.8051V17.53H15.3251V19.05Z"/>
<path d="M19.8951 6.86H13.8051V8.38H19.8951V6.86Z"/>
<path d="M15.3251 2.28999H18.3751V3.80999H19.8951V0.759995H13.8051V3.80999H15.3251V2.28999Z"/>
<path d="M13.8051 26.67H10.7551V28.19H13.8051V26.67Z"/>
<path d="M13.8051 22.1H10.7551V23.62H13.8051V22.1Z"/>
<path d="M13.8051 8.37999H10.7551V9.90999H13.8051V8.37999Z"/>
<path d="M13.8051 3.81H10.7551V5.34H13.8051V3.81Z"/>
<path d="M10.7551 25.14H9.23511V26.67H10.7551V25.14Z"/>
<path d="M10.7551 19.05H9.23511V22.1H10.7551V19.05Z"/>
<path d="M10.7551 9.90999H9.23511V12.95H10.7551V9.90999Z"/>
<path d="M10.7551 5.34H9.23511V6.86H10.7551V5.34Z"/>
<path d="M9.23508 26.67H7.70508V28.19H9.23508V26.67Z"/>
<path d="M9.23508 12.95H7.70508V19.05H9.23508V12.95Z"/>
<path d="M9.23508 3.81H7.70508V5.34H9.23508V3.81Z"/>
<path d="M7.70506 25.14H6.18506V26.67H7.70506V25.14Z"/>
<path d="M7.70506 22.1H6.18506V23.62H7.70506V22.1Z"/>
<path d="M7.70506 8.37999H6.18506V9.90999H7.70506V8.37999Z"/>
<path d="M7.70506 5.34H6.18506V6.86H7.70506V5.34Z"/>
<path d="M6.18516 23.62H4.66516V25.14H6.18516V23.62Z"/>
<path d="M6.18516 19.05H4.66516V22.1H6.18516V19.05Z"/>
<path d="M6.18516 9.90999H4.66516V12.95H6.18516V9.90999Z"/>
<path d="M6.18516 6.86H4.66516V8.38H6.18516V6.86Z"/>
<path d="M4.66511 17.53H3.13511V14.48H4.66511V12.95H1.61511V19.05H4.66511V17.53Z"/>
</g>
<defs>
<clipPath id="clip0_1128_11575">
<rect width="32" height="32" fill="white" transform="translate(0.850098)"/>
</clipPath>
</defs>
</svg>
